<svg id="グループ_41" data-name="グループ 41" xmlns="http://www.w3.org/2000/svg" width="25.176" height="25.176" viewBox="0 0 25.176 25.176">
  <g id="グループ_2" data-name="グループ 2" transform="translate(4.721 0)">
    <g id="グループ_1" data-name="グループ 1">
      <path id="パス_1" data-name="パス 1" d="M51.949,31a.786.786,0,0,0-.787.787v.787H38.574v-.787a.787.787,0,1,0-1.574,0V42.015a.786.786,0,0,0,.787.787H51.949a.787.787,0,0,0,.787-.787V31.787A.787.787,0,0,0,51.949,31ZM38.574,34.147H51.162v7.081H38.574Z" transform="translate(-37 -31)" fill="#fff"/>
    </g>
  </g>
  <g id="グループ_4" data-name="グループ 4" transform="translate(4.721 13.375)">
    <g id="グループ_3" data-name="グループ 3">
      <path id="パス_2" data-name="パス 2" d="M51.949,48H37.787a.786.786,0,0,0-.787.787V59.015a.787.787,0,0,0,1.574,0v-.787H51.162v.787a.787.787,0,0,0,1.574,0V48.787A.787.787,0,0,0,51.949,48ZM38.574,56.654V49.574H51.162v7.081Z" transform="translate(-37 -48)" fill="#fff"/>
    </g>
  </g>
  <g id="グループ_6" data-name="グループ 6" transform="translate(23.603 0)">
    <g id="グループ_5" data-name="グループ 5">
      <path id="パス_3" data-name="パス 3" d="M61.787,31a.786.786,0,0,0-.787.787v23.6a.787.787,0,1,0,1.574,0v-23.6A.787.787,0,0,0,61.787,31Z" transform="translate(-61 -31)" fill="#fff"/>
    </g>
  </g>
  <g id="グループ_8" data-name="グループ 8" transform="translate(21.242 3.934)">
    <g id="グループ_7" data-name="グループ 7">
      <rect id="長方形_282" data-name="長方形 282" width="1.574" height="1.574" fill="#fff"/>
    </g>
  </g>
  <g id="グループ_10" data-name="グループ 10" transform="translate(21.242 0.787)">
    <g id="グループ_9" data-name="グループ 9">
      <rect id="長方形_283" data-name="長方形 283" width="1.574" height="1.574" fill="#fff"/>
    </g>
  </g>
  <g id="グループ_12" data-name="グループ 12" transform="translate(21.242 7.081)">
    <g id="グループ_11" data-name="グループ 11">
      <rect id="長方形_284" data-name="長方形 284" width="1.574" height="1.574" fill="#fff"/>
    </g>
  </g>
  <g id="グループ_14" data-name="グループ 14" transform="translate(21.242 10.228)">
    <g id="グループ_13" data-name="グループ 13">
      <rect id="長方形_285" data-name="長方形 285" width="1.574" height="1.574" fill="#fff"/>
    </g>
  </g>
  <g id="グループ_16" data-name="グループ 16" transform="translate(21.242 13.375)">
    <g id="グループ_15" data-name="グループ 15">
      <rect id="長方形_286" data-name="長方形 286" width="1.574" height="1.574" fill="#fff"/>
    </g>
  </g>
  <g id="グループ_18" data-name="グループ 18" transform="translate(21.242 16.522)">
    <g id="グループ_17" data-name="グループ 17">
      <rect id="長方形_287" data-name="長方形 287" width="1.574" height="1.574" fill="#fff"/>
    </g>
  </g>
  <g id="グループ_20" data-name="グループ 20" transform="translate(21.242 19.669)">
    <g id="グループ_19" data-name="グループ 19">
      <rect id="長方形_288" data-name="長方形 288" width="1.574" height="1.574" fill="#fff"/>
    </g>
  </g>
  <g id="グループ_22" data-name="グループ 22" transform="translate(21.242 22.816)">
    <g id="グループ_21" data-name="グループ 21">
      <rect id="長方形_289" data-name="長方形 289" width="1.574" height="1.574" fill="#fff"/>
    </g>
  </g>
  <g id="グループ_24" data-name="グループ 24" transform="translate(0 0)">
    <g id="グループ_23" data-name="グループ 23">
      <path id="パス_4" data-name="パス 4" d="M31.787,31a.786.786,0,0,0-.787.787v23.6a.787.787,0,0,0,1.574,0v-23.6A.787.787,0,0,0,31.787,31Z" transform="translate(-31 -31)" fill="#fff"/>
    </g>
  </g>
  <g id="グループ_26" data-name="グループ 26" transform="translate(2.36 3.934)">
    <g id="グループ_25" data-name="グループ 25">
      <rect id="長方形_290" data-name="長方形 290" width="1.574" height="1.574" fill="#fff"/>
    </g>
  </g>
  <g id="グループ_28" data-name="グループ 28" transform="translate(2.36 0.787)">
    <g id="グループ_27" data-name="グループ 27">
      <rect id="長方形_291" data-name="長方形 291" width="1.574" height="1.574" fill="#fff"/>
    </g>
  </g>
  <g id="グループ_30" data-name="グループ 30" transform="translate(2.36 7.081)">
    <g id="グループ_29" data-name="グループ 29">
      <rect id="長方形_292" data-name="長方形 292" width="1.574" height="1.574" fill="#fff"/>
    </g>
  </g>
  <g id="グループ_32" data-name="グループ 32" transform="translate(2.36 10.228)">
    <g id="グループ_31" data-name="グループ 31">
      <rect id="長方形_293" data-name="長方形 293" width="1.574" height="1.574" fill="#fff"/>
    </g>
  </g>
  <g id="グループ_34" data-name="グループ 34" transform="translate(2.36 13.375)">
    <g id="グループ_33" data-name="グループ 33">
      <rect id="長方形_294" data-name="長方形 294" width="1.574" height="1.574" fill="#fff"/>
    </g>
  </g>
  <g id="グループ_36" data-name="グループ 36" transform="translate(2.36 16.522)">
    <g id="グループ_35" data-name="グループ 35">
      <rect id="長方形_295" data-name="長方形 295" width="1.574" height="1.574" fill="#fff"/>
    </g>
  </g>
  <g id="グループ_38" data-name="グループ 38" transform="translate(2.36 19.669)">
    <g id="グループ_37" data-name="グループ 37">
      <rect id="長方形_296" data-name="長方形 296" width="1.574" height="1.574" fill="#fff"/>
    </g>
  </g>
  <g id="グループ_40" data-name="グループ 40" transform="translate(2.36 22.816)">
    <g id="グループ_39" data-name="グループ 39">
      <rect id="長方形_297" data-name="長方形 297" width="1.574" height="1.574" fill="#fff"/>
    </g>
  </g>
</svg>
